<svg xmlns="http://www.w3.org/2000/svg" width="1600" height="1000" viewBox="0 0 1600 1000">
  <rect width="1600" height="1000" fill="#f4f4f0"/>
  <g fill="none" stroke="#0b132b" stroke-opacity="0.20" stroke-width="1.5">
    <path d="M-10 160 C 180 130, 320 210, 520 180 C 720 150, 900 230, 1120 200 C 1340 170, 1480 220, 1610 190"/>
    <path d="M-10 230 C 170 200, 340 280, 520 250 C 700 220, 900 300, 1120 270 C 1340 240, 1480 290, 1610 260"/>
    <path d="M-10 300 C 200 270, 340 350, 540 320 C 740 290, 900 360, 1120 340 C 1340 320, 1480 360, 1610 335"/>
    <path d="M-10 370 C 180 340, 360 420, 540 390 C 720 360, 920 440, 1120 410 C 1320 380, 1500 450, 1610 420"/>
    <path d="M-10 440 C 210 410, 360 500, 560 470 C 760 440, 920 520, 1140 490 C 1360 460, 1500 520, 1610 495"/>
    <path d="M-10 510 C 200 480, 380 560, 560 530 C 740 500, 940 580, 1140 550 C 1340 520, 1520 590, 1610 565"/>
    <path d="M-10 580 C 220 550, 380 630, 580 600 C 780 570, 940 650, 1160 620 C 1380 590, 1520 650, 1610 630"/>
    <path d="M-10 650 C 200 620, 400 700, 580 670 C 760 640, 960 720, 1160 690 C 1360 660, 1540 735, 1610 710"/>
    <path d="M-10 720 C 220 690, 410 770, 600 740 C 790 710, 980 790, 1180 760 C 1380 730, 1540 800, 1610 775"/>
    <path d="M-10 790 C 240 760, 420 840, 620 810 C 820 780, 1000 860, 1200 830 C 1400 800, 1560 865, 1610 845"/>
  </g>

  <g fill="none" stroke="#2a9d8f" stroke-opacity="0.22" stroke-width="1.5">
    <path d="M-20 120 C 160 95, 320 160, 520 130 C 720 100, 910 160, 1120 140 C 1330 120, 1480 160, 1620 135"/>
    <path d="M-20 400 C 180 370, 360 440, 560 415 C 760 390, 950 460, 1160 435 C 1370 410, 1520 460, 1620 440"/>
    <path d="M-20 680 C 200 650, 400 720, 600 695 C 800 670, 980 740, 1180 715 C 1380 690, 1540 745, 1620 725"/>
  </g>

  <g opacity="0.20">
    <circle cx="250" cy="220" r="1.2" fill="#0b132b"/>
    <circle cx="410" cy="330" r="1.2" fill="#0b132b"/>
    <circle cx="690" cy="260" r="1.2" fill="#0b132b"/>
    <circle cx="980" cy="360" r="1.2" fill="#0b132b"/>
    <circle cx="1210" cy="240" r="1.2" fill="#0b132b"/>
    <circle cx="1420" cy="310" r="1.2" fill="#0b132b"/>
    <circle cx="360" cy="610" r="1.2" fill="#0b132b"/>
    <circle cx="720" cy="560" r="1.2" fill="#0b132b"/>
    <circle cx="1080" cy="640" r="1.2" fill="#0b132b"/>
    <circle cx="1360" cy="570" r="1.2" fill="#0b132b"/>
  </g>
</svg>
